<?xml version="1.0" encoding="utf-8"?>
<!-- Generator: Adobe Illustrator 23.1.0, SVG Export Plug-In . SVG Version: 6.00 Build 0)  -->
<svg version="1.1" id="Layer_1" xmlns="http://www.w3.org/2000/svg" xmlns:xlink="http://www.w3.org/1999/xlink" x="0px" y="0px"
	 viewBox="0 0 533.33 127.11" style="enable-background:new 0 0 533.33 127.11;" xml:space="preserve">
<style type="text/css">
	.st0{fill:none;}
	.st1{fill:url(#SVGID_1_);stroke:#D5AB00;stroke-miterlimit:10;}
</style>
<g>
	<path d="M19.44,50.38c-1.97,0-3.55-0.24-4.75-0.71c-1.2-0.47-2.13-1.25-2.79-2.35c-0.66-1.09-1.09-2.53-1.31-4.31
		c-0.22-1.78-0.33-3.98-0.33-6.6v-1.75h3.93v1.73c0,2.16,0.09,3.88,0.27,5.15c0.18,1.27,0.47,2.24,0.88,2.91
		c0.41,0.67,0.95,1.09,1.62,1.28s1.5,0.28,2.48,0.28h9.18c1.31,0,2.39-0.16,3.24-0.48c0.85-0.32,1.52-0.8,2.01-1.46
		c0.49-0.65,0.83-1.48,1.02-2.48c0.19-1,0.29-2.18,0.29-3.54V8.47h3.93v29.69c0,2.18-0.18,4.05-0.53,5.59
		c-0.36,1.55-0.94,2.81-1.76,3.79s-1.9,1.7-3.24,2.16c-1.34,0.46-2.99,0.68-4.96,0.68H19.44z"/>
	<path d="M44.74,34.31c0-3.19,0.26-5.84,0.78-7.93c0.52-2.09,1.35-3.75,2.5-4.98c1.15-1.23,2.64-2.09,4.47-2.58
		c1.83-0.5,4.06-0.74,6.68-0.74s4.85,0.25,6.68,0.74c1.83,0.5,3.32,1.36,4.47,2.58c1.15,1.23,1.98,2.89,2.5,4.98
		c0.52,2.09,0.78,4.74,0.78,7.93c0,3.25-0.26,5.94-0.78,8.09c-0.52,2.15-1.35,3.85-2.5,5.12c-1.15,1.27-2.64,2.16-4.47,2.68
		c-1.83,0.52-4.06,0.78-6.68,0.78s-4.85-0.26-6.68-0.78c-1.83-0.52-3.32-1.42-4.47-2.68c-1.15-1.26-1.98-2.97-2.5-5.12
		C45,40.26,44.74,37.56,44.74,34.31z M48.68,34.31c0,1.73,0.05,3.23,0.14,4.51c0.1,1.28,0.28,2.38,0.54,3.29
		c0.27,0.92,0.64,1.66,1.12,2.24c0.48,0.58,1.11,1.03,1.88,1.38s1.72,0.58,2.84,0.7c1.11,0.13,2.43,0.19,3.96,0.19
		c1.31,0,2.48-0.04,3.51-0.12c1.03-0.08,1.93-0.26,2.7-0.55s1.43-0.7,1.98-1.23c0.55-0.53,0.99-1.25,1.32-2.17
		c0.33-0.92,0.58-2.05,0.74-3.39c0.16-1.34,0.24-2.96,0.24-4.84c0-1.85-0.08-3.43-0.24-4.74c-0.16-1.3-0.4-2.4-0.74-3.28
		c-0.33-0.88-0.78-1.58-1.32-2.09c-0.55-0.51-1.21-0.9-1.98-1.16c-0.77-0.26-1.67-0.43-2.7-0.5c-1.03-0.07-2.2-0.11-3.51-0.11
		s-2.48,0.04-3.51,0.11c-1.03,0.07-1.93,0.24-2.71,0.5c-0.77,0.26-1.43,0.65-1.98,1.16c-0.55,0.51-0.99,1.21-1.32,2.09
		c-0.33,0.88-0.58,1.97-0.74,3.28C48.76,30.88,48.68,32.46,48.68,34.31z"/>
	<path d="M101.69,46.07c-0.04,0.22-0.35,0.76-0.92,1.64c-0.41,0.65-0.96,1.23-1.64,1.73c-0.68,0.5-1.59,0.89-2.74,1.17
		c-1.14,0.28-2.64,0.42-4.5,0.42c-2.47,0-4.58-0.17-6.33-0.5c-1.75-0.34-3.18-0.86-4.28-1.56s-1.92-1.6-2.43-2.69
		c-0.51-1.09-0.77-2.39-0.77-3.9c0-1.58,0.14-2.92,0.42-4.03s0.69-2.02,1.23-2.77s1.19-1.33,1.96-1.75
		c0.76-0.42,1.64-0.74,2.61-0.96c0.98-0.22,2.05-0.35,3.21-0.41s2.4-0.08,3.71-0.08c1.87,0,3.44,0.11,4.69,0.31
		c1.26,0.21,2.28,0.47,3.08,0.79c0.8,0.32,1.4,0.66,1.81,1.02c0.41,0.36,0.7,0.7,0.88,1.01c0-2.04-0.07-3.78-0.2-5.21
		c-0.13-1.44-0.34-2.64-0.63-3.6s-0.67-1.73-1.14-2.31c-0.46-0.57-1.03-1.01-1.71-1.3c-0.68-0.29-1.46-0.48-2.37-0.56
		c-0.9-0.08-1.93-0.12-3.09-0.12c-1.8,0-3.3,0.06-4.49,0.18c-1.19,0.12-2.13,0.35-2.83,0.7s-1.19,0.82-1.48,1.43
		s-0.43,1.41-0.43,2.39h-3.93c0-1.66,0.22-3.06,0.67-4.2c0.44-1.15,1.18-2.08,2.21-2.8c1.03-0.72,2.39-1.24,4.07-1.57
		c1.68-0.33,3.75-0.49,6.21-0.49c2.4,0,4.44,0.26,6.11,0.79c1.67,0.53,3.02,1.46,4.05,2.78c1.03,1.33,1.78,3.12,2.23,5.36
		c0.46,2.25,0.69,5.09,0.69,8.53v14.84h-3.93V46.07z M92.55,46.67c1.73,0,3.19-0.11,4.35-0.32c1.17-0.21,2.11-0.54,2.82-0.97
		c0.71-0.43,1.22-0.97,1.52-1.62s0.45-1.4,0.45-2.26s-0.17-1.59-0.52-2.19c-0.35-0.6-0.93-1.09-1.74-1.47s-1.89-0.65-3.23-0.82
		s-2.99-0.26-4.96-0.26c-1.97,0-3.56,0.04-4.76,0.13s-2.14,0.3-2.8,0.62c-0.66,0.32-1.1,0.8-1.32,1.43s-0.34,1.48-0.34,2.56
		c0,1.08,0.12,1.95,0.36,2.63c0.24,0.67,0.73,1.2,1.46,1.58s1.8,0.63,3.19,0.77C88.41,46.61,90.25,46.67,92.55,46.67z"/>
	<path d="M134.47,50.38V32.92c0-1.95-0.11-3.59-0.33-4.93s-0.66-2.42-1.31-3.23c-0.66-0.82-1.58-1.41-2.79-1.77
		c-1.2-0.36-2.79-0.55-4.75-0.55c-2.13,0-3.88,0.21-5.24,0.63c-1.36,0.42-2.43,1.01-3.21,1.77c-0.78,0.76-1.32,1.68-1.61,2.76
		c-0.29,1.07-0.44,2.26-0.44,3.58v19.21h-3.93V18.95h3.93v5.24c0.29-0.89,0.7-1.66,1.23-2.31c0.53-0.65,1.13-1.2,1.8-1.65
		c0.67-0.45,1.39-0.82,2.17-1.1s1.56-0.5,2.34-0.66s1.53-0.26,2.26-0.31c0.73-0.05,1.4-0.08,2-0.08c1.75,0,3.25,0.15,4.52,0.44
		s2.34,0.72,3.22,1.28c0.88,0.56,1.59,1.26,2.12,2.1c0.53,0.84,0.95,1.81,1.24,2.91s0.49,2.33,0.58,3.68
		c0.1,1.36,0.14,2.83,0.14,4.43l-0.02,17.46H134.47z"/>
	<path d="M167.28,50.38V32.92c0-1.95-0.11-3.59-0.33-4.93s-0.66-2.42-1.31-3.23c-0.66-0.82-1.58-1.41-2.79-1.77
		c-1.2-0.36-2.79-0.55-4.75-0.55c-2.13,0-3.88,0.21-5.24,0.63c-1.36,0.42-2.43,1.01-3.21,1.77c-0.78,0.76-1.32,1.68-1.61,2.76
		c-0.29,1.07-0.44,2.26-0.44,3.58v19.21h-3.93V18.95h3.93v5.24c0.29-0.89,0.7-1.66,1.23-2.31c0.53-0.65,1.13-1.2,1.8-1.65
		c0.67-0.45,1.39-0.82,2.17-1.1s1.56-0.5,2.34-0.66s1.53-0.26,2.26-0.31c0.73-0.05,1.4-0.08,2-0.08c1.75,0,3.25,0.15,4.52,0.44
		s2.34,0.72,3.22,1.28c0.88,0.56,1.59,1.26,2.12,2.1c0.53,0.84,0.95,1.81,1.24,2.91s0.49,2.33,0.58,3.68
		c0.1,1.36,0.14,2.83,0.14,4.43l-0.02,17.46H167.28z"/>
	<path d="M199.98,46.07c-0.04,0.22-0.35,0.76-0.92,1.64c-0.41,0.65-0.96,1.23-1.64,1.73c-0.68,0.5-1.59,0.89-2.74,1.17
		c-1.14,0.28-2.64,0.42-4.5,0.42c-2.47,0-4.58-0.17-6.33-0.5c-1.75-0.34-3.18-0.86-4.28-1.56s-1.92-1.6-2.43-2.69
		c-0.51-1.09-0.77-2.39-0.77-3.9c0-1.58,0.14-2.92,0.42-4.03s0.69-2.02,1.23-2.77s1.19-1.33,1.96-1.75
		c0.76-0.42,1.64-0.74,2.61-0.96c0.98-0.22,2.05-0.35,3.21-0.41s2.4-0.08,3.71-0.08c1.87,0,3.44,0.11,4.69,0.31
		c1.26,0.21,2.28,0.47,3.08,0.79c0.8,0.32,1.4,0.66,1.81,1.02c0.41,0.36,0.7,0.7,0.88,1.01c0-2.04-0.07-3.78-0.2-5.21
		c-0.13-1.44-0.34-2.64-0.63-3.6s-0.67-1.73-1.14-2.31c-0.46-0.57-1.03-1.01-1.71-1.3c-0.68-0.29-1.46-0.48-2.37-0.56
		c-0.9-0.08-1.93-0.12-3.09-0.12c-1.8,0-3.3,0.06-4.49,0.18c-1.19,0.12-2.13,0.35-2.83,0.7s-1.19,0.82-1.48,1.43
		s-0.43,1.41-0.43,2.39h-3.93c0-1.66,0.22-3.06,0.67-4.2c0.44-1.15,1.18-2.08,2.21-2.8c1.03-0.72,2.39-1.24,4.07-1.57
		c1.68-0.33,3.75-0.49,6.21-0.49c2.4,0,4.44,0.26,6.11,0.79c1.67,0.53,3.02,1.46,4.05,2.78c1.03,1.33,1.78,3.12,2.23,5.36
		c0.46,2.25,0.69,5.09,0.69,8.53v14.84h-3.93V46.07z M190.84,46.67c1.73,0,3.19-0.11,4.35-0.32c1.17-0.21,2.11-0.54,2.82-0.97
		c0.71-0.43,1.22-0.97,1.52-1.62s0.45-1.4,0.45-2.26s-0.17-1.59-0.52-2.19c-0.35-0.6-0.93-1.09-1.74-1.47s-1.89-0.65-3.23-0.82
		s-2.99-0.26-4.96-0.26c-1.97,0-3.56,0.04-4.76,0.13s-2.14,0.3-2.8,0.62c-0.66,0.32-1.1,0.8-1.32,1.43s-0.34,1.48-0.34,2.56
		c0,1.08,0.12,1.95,0.36,2.63c0.24,0.67,0.73,1.2,1.46,1.58s1.8,0.63,3.19,0.77C186.71,46.61,188.55,46.67,190.84,46.67z"/>
	<path d="M228.83,50.38V8.47h3.93v37.55h24.92v4.37H228.83z"/>
	<path d="M272.76,50.98c-2.62,0-4.85-0.24-6.68-0.72c-1.83-0.48-3.32-1.31-4.47-2.5c-1.15-1.18-1.98-2.76-2.5-4.75
		c-0.52-1.98-0.78-4.48-0.78-7.48c0-3.44,0.26-6.28,0.78-8.53c0.52-2.25,1.35-4.03,2.5-5.36c1.15-1.33,2.64-2.25,4.47-2.78
		c1.83-0.53,4.06-0.79,6.68-0.79c1.87,0,3.49,0.18,4.87,0.55c1.37,0.36,2.55,0.89,3.52,1.58c0.98,0.69,1.77,1.53,2.38,2.51
		c0.61,0.98,1.09,2.02,1.43,3.1s0.59,2.35,0.72,3.81c0.13,1.46,0.19,2.99,0.19,4.61l-0.33,1.75h-23.28c0,2.34,0.18,4.26,0.53,5.76
		c0.35,1.5,0.94,2.59,1.76,3.29c0.82,0.69,1.9,1.13,3.24,1.32s2.99,0.28,4.96,0.28c1.8,0,3.3-0.06,4.48-0.19
		c1.18-0.13,2.12-0.38,2.82-0.74c0.7-0.36,1.18-0.87,1.46-1.51s0.42-1.49,0.42-2.52h3.93c0,1.69-0.22,3.13-0.67,4.33
		c-0.44,1.19-1.18,2.16-2.2,2.89c-1.02,0.74-2.37,1.27-4.05,1.61C277.29,50.82,275.22,50.98,272.76,50.98z M272.76,22.44
		c-1.31,0-2.48,0.04-3.51,0.11c-1.03,0.07-1.93,0.23-2.71,0.48c-0.77,0.25-1.43,0.6-1.98,1.06c-0.55,0.46-0.99,1.01-1.32,1.64
		c-0.33,0.63-0.58,1.51-0.74,2.65c-0.16,1.14-0.24,2.51-0.24,4.11h19.67c0-2.13-0.17-3.8-0.51-5.01c-0.34-1.21-0.88-2.21-1.62-2.99
		c-0.74-0.78-1.69-1.32-2.85-1.61C275.8,22.59,274.4,22.44,272.76,22.44z"/>
	<path d="M305.55,18.07c2.62,0,4.85,0.26,6.68,0.79c1.83,0.52,3.32,1.42,4.47,2.68c1.15,1.26,1.98,2.96,2.5,5.07
		c0.52,2.12,0.78,4.78,0.78,7.97c0,3.19-0.26,5.84-0.78,7.95c-0.52,2.11-1.35,3.79-2.5,5.04c-1.15,1.25-2.64,2.13-4.47,2.64
		c-1.83,0.51-4.06,0.77-6.68,0.77c-1.87,0-3.44-0.15-4.69-0.44c-1.26-0.29-2.28-0.66-3.08-1.09c-0.8-0.44-1.41-0.91-1.82-1.41
		c-0.42-0.5-0.71-0.98-0.89-1.43v14.24h-3.93V18.95h3.93v2.92c0.18-0.36,0.47-0.77,0.89-1.21c0.42-0.45,1.02-0.86,1.82-1.24
		c0.8-0.38,1.83-0.7,3.08-0.96S303.68,18.07,305.55,18.07z M305.55,22.44c-1.31,0-2.48,0.04-3.5,0.13s-1.93,0.27-2.71,0.55
		c-0.78,0.28-1.44,0.68-1.98,1.21c-0.54,0.53-0.98,1.24-1.32,2.13s-0.59,1.99-0.75,3.31c-0.16,1.31-0.24,2.89-0.24,4.72
		c0,1.85,0.08,3.45,0.24,4.78s0.41,2.44,0.75,3.33c0.34,0.89,0.78,1.6,1.32,2.13c0.54,0.53,1.2,0.93,1.98,1.21
		c0.78,0.28,1.68,0.46,2.71,0.54s2.19,0.12,3.5,0.12c1.53,0,2.85-0.06,3.96-0.19c1.11-0.13,2.06-0.35,2.84-0.67
		c0.78-0.32,1.41-0.77,1.9-1.35c0.48-0.58,0.86-1.31,1.13-2.2s0.44-1.96,0.53-3.21c0.09-1.25,0.13-2.72,0.13-4.41
		c0-1.69-0.04-3.17-0.13-4.42c-0.09-1.26-0.27-2.34-0.53-3.24s-0.64-1.64-1.13-2.21c-0.49-0.58-1.12-1.03-1.9-1.38
		c-0.78-0.34-1.72-0.58-2.84-0.7S307.08,22.44,305.55,22.44z"/>
	<path d="M324.56,8.47h3.93v22.92h1.29l14.45-12.44h5.9l-16.72,14.63l17.38,16.81h-5.9l-15.08-15.06h-1.31v15.06h-3.93V8.47z"/>
	<path d="M350.79,34.31c0-3.19,0.26-5.84,0.78-7.93c0.52-2.09,1.35-3.75,2.5-4.98c1.15-1.23,2.64-2.09,4.47-2.58
		c1.83-0.5,4.06-0.74,6.68-0.74s4.85,0.25,6.68,0.74c1.83,0.5,3.32,1.36,4.47,2.58c1.15,1.23,1.98,2.89,2.5,4.98
		c0.52,2.09,0.78,4.74,0.78,7.93c0,3.25-0.26,5.94-0.78,8.09c-0.52,2.15-1.35,3.85-2.5,5.12c-1.15,1.27-2.64,2.16-4.47,2.68
		c-1.83,0.52-4.06,0.78-6.68,0.78s-4.85-0.26-6.68-0.78c-1.83-0.52-3.32-1.42-4.47-2.68c-1.15-1.26-1.98-2.97-2.5-5.12
		C351.05,40.26,350.79,37.56,350.79,34.31z M354.73,34.31c0,1.73,0.05,3.23,0.14,4.51c0.1,1.28,0.28,2.38,0.54,3.29
		c0.27,0.92,0.64,1.66,1.12,2.24c0.48,0.58,1.11,1.03,1.88,1.38s1.72,0.58,2.84,0.7c1.11,0.13,2.43,0.19,3.96,0.19
		c1.31,0,2.48-0.04,3.51-0.12c1.03-0.08,1.93-0.26,2.7-0.55s1.43-0.7,1.98-1.23c0.55-0.53,0.99-1.25,1.32-2.17
		c0.33-0.92,0.58-2.05,0.74-3.39c0.16-1.34,0.24-2.96,0.24-4.84c0-1.85-0.08-3.43-0.24-4.74c-0.16-1.3-0.4-2.4-0.74-3.28
		c-0.33-0.88-0.78-1.58-1.32-2.09c-0.55-0.51-1.21-0.9-1.98-1.16c-0.77-0.26-1.67-0.43-2.7-0.5c-1.03-0.07-2.2-0.11-3.51-0.11
		s-2.48,0.04-3.51,0.11c-1.03,0.07-1.93,0.24-2.71,0.5c-0.77,0.26-1.43,0.65-1.98,1.16c-0.55,0.51-0.99,1.21-1.32,2.09
		c-0.33,0.88-0.58,1.97-0.74,3.28C354.8,30.88,354.73,32.46,354.73,34.31z"/>
	<path d="M415.8,50.34h-5.25l-7.19-25.71l-7.23,25.81h-5.34l-9.18-31.49h4.59l7.21,27.51l7.87-27.51h4.04l7.77,27.46l7.29-27.46
		h4.59L415.8,50.34z"/>
	<path d="M437.69,35.95c-1.41-0.07-2.62-0.22-3.64-0.45s-1.86-0.55-2.54-0.97c-0.68-0.42-1.21-0.98-1.61-1.68
		c-0.4-0.7-0.68-1.56-0.84-2.59c-0.16-1.03-0.25-2.14-0.25-3.34c0-1.64,0.26-3.01,0.78-4.13c0.52-1.12,1.35-2.03,2.5-2.73
		s2.64-1.21,4.47-1.51c1.83-0.31,4.06-0.46,6.68-0.46c2.6,0,4.74,0.18,6.42,0.55c1.69,0.36,3.03,0.92,4.02,1.68
		c0.99,0.75,1.68,1.71,2.08,2.85c0.4,1.15,0.59,2.51,0.59,4.09h-3.93c0-0.98-0.14-1.78-0.42-2.4s-0.77-1.11-1.46-1.46
		c-0.7-0.36-1.64-0.6-2.82-0.74c-1.18-0.14-2.67-0.2-4.48-0.2c-1.97,0-3.62,0.04-4.96,0.11c-1.34,0.07-2.42,0.26-3.24,0.55
		c-0.82,0.29-1.41,0.74-1.76,1.34c-0.36,0.6-0.53,1.43-0.53,2.48c0,0.62,0.03,1.22,0.09,1.82c0.06,0.59,0.2,1.08,0.42,1.46
		c0.22,0.38,0.54,0.67,0.96,0.87c0.42,0.2,1,0.35,1.73,0.45c0.73,0.1,1.64,0.15,2.71,0.16c1.08,0.01,2.38,0.01,3.91,0.01
		c1.86,0,3.49,0.05,4.89,0.16s2.61,0.3,3.64,0.57c1.02,0.27,1.87,0.69,2.54,1.25c0.67,0.56,1.21,1.18,1.61,1.84s0.69,1.45,0.85,2.35
		s0.25,1.94,0.25,3.12c0,1.18-0.08,2.24-0.25,3.18c-0.16,0.94-0.45,1.76-0.86,2.48c-0.41,0.72-0.97,1.34-1.67,1.86
		c-0.7,0.52-1.59,0.94-2.65,1.25c-1.07,0.32-2.34,0.56-3.82,0.71s-3.21,0.23-5.17,0.23c-2.46,0-4.53-0.16-6.2-0.49
		c-1.67-0.33-3.02-0.85-4.05-1.57s-1.76-1.65-2.2-2.8c-0.44-1.15-0.67-2.55-0.67-4.2h3.93c0,1.09,0.14,1.98,0.42,2.66
		c0.28,0.68,0.77,1.21,1.46,1.6c0.7,0.38,1.64,0.64,2.82,0.78c1.18,0.14,2.67,0.2,4.48,0.2c1.64,0,3.04-0.05,4.19-0.15
		c1.15-0.1,2.12-0.26,2.9-0.48c0.78-0.22,1.39-0.48,1.84-0.79c0.45-0.31,0.79-0.68,1.02-1.12c0.23-0.44,0.38-0.92,0.44-1.46
		c0.06-0.54,0.09-1.13,0.09-1.79c0-0.6-0.03-1.13-0.09-1.6s-0.2-0.93-0.42-1.39c-0.22-0.46-0.54-0.81-0.96-1.05
		c-0.42-0.24-1-0.43-1.73-0.59c-0.73-0.15-1.64-0.26-2.71-0.33c-1.08-0.06-2.38-0.09-3.91-0.09
		C440.73,36.06,439.1,36.02,437.69,35.95z"/>
	<path d="M461.6,8.47h3.93v22.92h1.29l14.45-12.44h5.9l-16.72,14.63l17.38,16.81h-5.9l-15.08-15.06h-1.31v15.06h-3.93V8.47z"/>
	<path d="M511.99,46.07c-0.04,0.22-0.35,0.76-0.92,1.64c-0.41,0.65-0.96,1.23-1.64,1.73c-0.68,0.5-1.59,0.89-2.74,1.17
		c-1.14,0.28-2.64,0.42-4.5,0.42c-2.47,0-4.58-0.17-6.33-0.5c-1.75-0.34-3.18-0.86-4.28-1.56s-1.92-1.6-2.43-2.69
		c-0.51-1.09-0.77-2.39-0.77-3.9c0-1.58,0.14-2.92,0.42-4.03c0.28-1.1,0.69-2.02,1.23-2.77c0.54-0.75,1.19-1.33,1.96-1.75
		c0.77-0.42,1.64-0.74,2.61-0.96c0.98-0.22,2.04-0.35,3.21-0.41s2.4-0.08,3.71-0.08c1.87,0,3.44,0.11,4.69,0.31
		c1.26,0.21,2.29,0.47,3.08,0.79s1.4,0.66,1.81,1.02s0.7,0.7,0.88,1.01c0-2.04-0.06-3.78-0.19-5.21c-0.13-1.44-0.34-2.64-0.64-3.6
		c-0.29-0.96-0.67-1.73-1.14-2.31c-0.46-0.57-1.04-1.01-1.71-1.3s-1.46-0.48-2.37-0.56c-0.9-0.08-1.93-0.12-3.09-0.12
		c-1.8,0-3.3,0.06-4.49,0.18c-1.19,0.12-2.13,0.35-2.83,0.7c-0.7,0.35-1.19,0.82-1.47,1.43c-0.29,0.61-0.43,1.41-0.43,2.39h-3.93
		c0-1.66,0.22-3.06,0.67-4.2c0.44-1.15,1.18-2.08,2.21-2.8c1.03-0.72,2.39-1.24,4.07-1.57c1.68-0.33,3.75-0.49,6.21-0.49
		c2.4,0,4.44,0.26,6.11,0.79c1.67,0.53,3.02,1.46,4.05,2.78c1.03,1.33,1.78,3.12,2.23,5.36c0.46,2.25,0.69,5.09,0.69,8.53v14.84
		h-3.93V46.07z M502.85,46.67c1.73,0,3.19-0.11,4.35-0.32c1.17-0.21,2.11-0.54,2.82-0.97c0.71-0.43,1.22-0.97,1.52-1.62
		c0.3-0.65,0.45-1.4,0.45-2.26s-0.17-1.59-0.52-2.19c-0.35-0.6-0.93-1.09-1.74-1.47c-0.81-0.38-1.89-0.65-3.23-0.82
		s-2.99-0.26-4.96-0.26c-1.97,0-3.55,0.04-4.76,0.13s-2.14,0.3-2.8,0.62c-0.66,0.32-1.1,0.8-1.32,1.43
		c-0.22,0.63-0.34,1.48-0.34,2.56c0,1.08,0.12,1.95,0.36,2.63s0.73,1.2,1.47,1.58c0.74,0.38,1.8,0.63,3.19,0.77
		S500.56,46.67,502.85,46.67z"/>
</g>
<g>
	<path d="M141.43,115.32h-2.53v-11.4c0-1.22-0.06-2.24-0.18-3.08c-0.12-0.84-0.36-1.51-0.72-2.03c-0.37-0.51-0.88-0.89-1.54-1.11
		c-0.66-0.23-1.53-0.34-2.61-0.34c-1.19,0-2.16,0.13-2.92,0.39c-0.76,0.26-1.37,0.63-1.8,1.1c-0.44,0.47-0.74,1.04-0.92,1.71
		c-0.17,0.67-0.26,1.41-0.26,2.23v12.52h-2.53v-20.2h2.53v3.19c0.01-0.04,0.05-0.15,0.12-0.35c0.07-0.2,0.2-0.44,0.38-0.71
		c0.18-0.27,0.42-0.57,0.74-0.88c0.31-0.32,0.71-0.61,1.21-0.88s1.09-0.49,1.8-0.67c0.7-0.17,1.54-0.26,2.5-0.26
		c0.95,0,1.77,0.08,2.47,0.24c0.7,0.16,1.29,0.39,1.79,0.7s0.9,0.7,1.21,1.16s0.56,0.99,0.74,1.59c0.15-0.32,0.38-0.68,0.7-1.1
		c0.32-0.42,0.76-0.82,1.32-1.21c0.57-0.39,1.28-0.71,2.13-0.97s1.89-0.39,3.12-0.39c1.01,0,1.88,0.09,2.6,0.27
		c0.72,0.18,1.34,0.45,1.84,0.81c0.5,0.36,0.9,0.8,1.21,1.32s0.54,1.14,0.7,1.83c0.16,0.7,0.27,1.47,0.32,2.33s0.08,1.79,0.08,2.8
		v11.4h-2.53v-11.4c0-1.22-0.06-2.24-0.18-3.08c-0.12-0.84-0.36-1.51-0.72-2.03s-0.88-0.89-1.54-1.11
		c-0.66-0.23-1.53-0.34-2.61-0.34c-1.19,0-2.16,0.13-2.92,0.39c-0.76,0.26-1.37,0.63-1.8,1.1c-0.44,0.47-0.74,1.04-0.92,1.71
		c-0.17,0.67-0.26,1.41-0.26,2.23V115.32z"/>
	<path d="M173.39,112.55c-0.03,0.14-0.22,0.49-0.59,1.05c-0.26,0.42-0.61,0.79-1.05,1.11c-0.44,0.32-1.03,0.57-1.76,0.75
		c-0.73,0.18-1.7,0.27-2.89,0.27c-1.59,0-2.95-0.11-4.07-0.32c-1.12-0.22-2.04-0.55-2.75-1c-0.71-0.45-1.23-1.03-1.56-1.73
		c-0.33-0.7-0.49-1.54-0.49-2.51c0-1.02,0.09-1.88,0.27-2.59c0.18-0.71,0.44-1.3,0.79-1.78c0.35-0.48,0.77-0.85,1.26-1.12
		c0.49-0.27,1.05-0.47,1.68-0.61c0.63-0.14,1.31-0.23,2.06-0.26c0.75-0.04,1.54-0.05,2.38-0.05c1.2,0,2.21,0.07,3.02,0.2
		s1.47,0.3,1.98,0.51c0.51,0.2,0.9,0.42,1.17,0.66c0.26,0.23,0.45,0.45,0.57,0.65c0-1.31-0.04-2.42-0.13-3.35s-0.22-1.7-0.41-2.32
		c-0.19-0.62-0.43-1.11-0.73-1.48c-0.3-0.37-0.67-0.65-1.1-0.83c-0.43-0.19-0.94-0.31-1.52-0.36c-0.58-0.05-1.24-0.08-1.99-0.08
		c-1.16,0-2.12,0.04-2.88,0.11s-1.37,0.23-1.82,0.45s-0.76,0.53-0.95,0.92s-0.28,0.9-0.28,1.53h-2.53c0-1.06,0.14-1.96,0.43-2.7
		c0.29-0.74,0.76-1.33,1.42-1.8c0.66-0.46,1.53-0.8,2.61-1.01c1.08-0.21,2.41-0.32,3.99-0.32c1.54,0,2.85,0.17,3.92,0.51
		c1.07,0.34,1.94,0.94,2.6,1.79c0.66,0.85,1.14,2,1.43,3.45c0.29,1.44,0.44,3.27,0.44,5.48v9.54h-2.53V112.55z M167.52,112.93
		c1.11,0,2.05-0.07,2.8-0.21c0.75-0.14,1.35-0.35,1.81-0.62c0.46-0.28,0.78-0.62,0.97-1.04c0.19-0.42,0.29-0.9,0.29-1.45
		s-0.11-1.02-0.34-1.41c-0.22-0.39-0.6-0.7-1.12-0.94s-1.21-0.42-2.07-0.53c-0.86-0.11-1.92-0.16-3.19-0.16
		c-1.26,0-2.29,0.03-3.06,0.09c-0.78,0.06-1.38,0.19-1.8,0.4c-0.42,0.21-0.7,0.51-0.85,0.92c-0.15,0.4-0.22,0.95-0.22,1.64
		c0,0.69,0.08,1.25,0.23,1.69s0.47,0.77,0.94,1.01s1.16,0.41,2.05,0.49C164.86,112.89,166.04,112.93,167.52,112.93z"/>
	<path d="M179.29,88.38h2.53v14.73h0.83l9.29-8h3.79l-10.75,9.4l11.17,10.8h-3.79l-9.69-9.68h-0.84v9.68h-2.53V88.38z"/>
	<path d="M205.41,115.7c-1.69,0-3.12-0.16-4.29-0.46c-1.18-0.31-2.13-0.84-2.87-1.6c-0.74-0.76-1.27-1.78-1.61-3.05
		c-0.33-1.27-0.5-2.88-0.5-4.81c0-2.21,0.17-4.04,0.5-5.48c0.33-1.44,0.87-2.59,1.61-3.45c0.74-0.85,1.69-1.45,2.87-1.79
		c1.18-0.34,2.61-0.51,4.29-0.51c1.2,0,2.24,0.12,3.13,0.35c0.88,0.23,1.64,0.57,2.26,1.02s1.14,0.98,1.53,1.61
		c0.39,0.63,0.7,1.29,0.92,1.99s0.38,1.51,0.46,2.45c0.08,0.94,0.13,1.92,0.13,2.96l-0.21,1.12h-14.96c0,1.5,0.11,2.74,0.34,3.7
		c0.23,0.96,0.61,1.67,1.13,2.11c0.53,0.45,1.22,0.73,2.08,0.85c0.86,0.12,1.92,0.18,3.19,0.18c1.16,0,2.12-0.04,2.88-0.13
		c0.76-0.08,1.36-0.24,1.81-0.47c0.45-0.23,0.76-0.56,0.94-0.97c0.18-0.42,0.27-0.96,0.27-1.62h2.53c0,1.09-0.14,2.01-0.43,2.78
		s-0.76,1.39-1.42,1.86c-0.66,0.47-1.53,0.82-2.6,1.04C208.32,115.59,206.99,115.7,205.41,115.7z M205.41,97.36
		c-0.84,0-1.6,0.02-2.26,0.07s-1.24,0.15-1.74,0.31c-0.5,0.16-0.92,0.39-1.27,0.68c-0.35,0.3-0.63,0.65-0.85,1.05
		c-0.21,0.4-0.37,0.97-0.47,1.7s-0.15,1.61-0.15,2.64h12.64c0-1.37-0.11-2.44-0.33-3.22s-0.57-1.42-1.04-1.92
		c-0.47-0.5-1.08-0.85-1.83-1.04C207.36,97.45,206.46,97.36,205.41,97.36z"/>
	<path d="M219.74,95.11v11.11c0,1.24,0.07,2.28,0.21,3.13c0.14,0.85,0.42,1.54,0.84,2.06c0.42,0.52,1.02,0.9,1.79,1.13
		c0.77,0.23,1.79,0.35,3.06,0.35c1.37,0,2.49-0.13,3.37-0.4s1.56-0.64,2.06-1.13s0.85-1.07,1.04-1.75c0.19-0.68,0.28-1.44,0.28-2.27
		V95.11h2.53v20.2h-2.53v-3.53c-0.12,0.38-0.33,0.8-0.62,1.25c-0.29,0.46-0.73,0.88-1.31,1.27s-1.33,0.72-2.25,0.99
		s-2.06,0.4-3.42,0.4c-1.13,0-2.1-0.09-2.91-0.27c-0.81-0.18-1.5-0.45-2.07-0.81c-0.57-0.36-1.02-0.8-1.36-1.32
		s-0.61-1.14-0.79-1.83c-0.18-0.7-0.31-1.47-0.37-2.32s-0.09-1.79-0.09-2.81l0.01-11.22H219.74z"/>
	<path d="M247.56,94.55c1.69,0,3.12,0.17,4.29,0.5c1.18,0.34,2.13,0.91,2.87,1.72s1.27,1.9,1.61,3.26c0.33,1.36,0.5,3.07,0.5,5.12
		c0,2.05-0.17,3.75-0.5,5.11c-0.33,1.36-0.87,2.43-1.61,3.24s-1.69,1.37-2.87,1.7c-1.18,0.33-2.61,0.5-4.29,0.5
		c-1.2,0-2.21-0.09-3.02-0.28c-0.81-0.19-1.47-0.42-1.98-0.7c-0.51-0.28-0.9-0.58-1.17-0.91c-0.27-0.32-0.46-0.63-0.57-0.92v9.15
		h-2.53V95.11h2.53v1.88c0.11-0.23,0.31-0.49,0.57-0.78s0.66-0.55,1.17-0.8s1.17-0.45,1.98-0.61
		C245.35,94.64,246.36,94.55,247.56,94.55z M247.56,97.36c-0.84,0-1.59,0.03-2.25,0.09s-1.24,0.18-1.74,0.36
		c-0.5,0.18-0.92,0.44-1.27,0.78s-0.63,0.8-0.85,1.37c-0.22,0.57-0.38,1.28-0.48,2.12c-0.1,0.84-0.15,1.86-0.15,3.03
		c0,1.19,0.05,2.21,0.15,3.07c0.1,0.86,0.26,1.57,0.48,2.14c0.22,0.57,0.5,1.03,0.85,1.37s0.77,0.6,1.27,0.78
		c0.5,0.18,1.08,0.29,1.74,0.35s1.41,0.08,2.25,0.08c0.98,0,1.83-0.04,2.55-0.12s1.32-0.23,1.82-0.43c0.5-0.21,0.91-0.5,1.22-0.87
		s0.55-0.84,0.72-1.41c0.17-0.57,0.29-1.26,0.34-2.06c0.06-0.8,0.09-1.75,0.09-2.83c0-1.09-0.03-2.04-0.09-2.84
		c-0.06-0.81-0.17-1.5-0.34-2.08c-0.17-0.58-0.41-1.05-0.72-1.42c-0.31-0.37-0.72-0.67-1.22-0.88c-0.5-0.22-1.11-0.37-1.82-0.45
		C249.39,97.4,248.54,97.36,247.56,97.36z"/>
	<path d="M286.68,112.55c-0.03,0.14-0.22,0.49-0.59,1.05c-0.26,0.42-0.61,0.79-1.05,1.11c-0.44,0.32-1.03,0.57-1.76,0.75
		c-0.73,0.18-1.7,0.27-2.89,0.27c-1.59,0-2.95-0.11-4.07-0.32c-1.12-0.22-2.04-0.55-2.75-1c-0.71-0.45-1.23-1.03-1.56-1.73
		c-0.33-0.7-0.49-1.54-0.49-2.51c0-1.02,0.09-1.88,0.27-2.59c0.18-0.71,0.44-1.3,0.79-1.78c0.35-0.48,0.77-0.85,1.26-1.12
		c0.49-0.27,1.05-0.47,1.68-0.61c0.63-0.14,1.31-0.23,2.06-0.26c0.75-0.04,1.54-0.05,2.38-0.05c1.2,0,2.21,0.07,3.02,0.2
		s1.47,0.3,1.98,0.51c0.51,0.2,0.9,0.42,1.17,0.66c0.26,0.23,0.45,0.45,0.57,0.65c0-1.31-0.04-2.42-0.13-3.35s-0.22-1.7-0.41-2.32
		c-0.19-0.62-0.43-1.11-0.73-1.48c-0.3-0.37-0.67-0.65-1.1-0.83c-0.43-0.19-0.94-0.31-1.52-0.36c-0.58-0.05-1.24-0.08-1.99-0.08
		c-1.16,0-2.12,0.04-2.88,0.11s-1.37,0.23-1.82,0.45s-0.76,0.53-0.95,0.92s-0.28,0.9-0.28,1.53h-2.53c0-1.06,0.14-1.96,0.43-2.7
		c0.29-0.74,0.76-1.33,1.42-1.8c0.66-0.46,1.53-0.8,2.61-1.01c1.08-0.21,2.41-0.32,3.99-0.32c1.54,0,2.85,0.17,3.92,0.51
		c1.07,0.34,1.94,0.94,2.6,1.79c0.66,0.85,1.14,2,1.43,3.45c0.29,1.44,0.44,3.27,0.44,5.48v9.54h-2.53V112.55z M280.81,112.93
		c1.11,0,2.05-0.07,2.8-0.21c0.75-0.14,1.35-0.35,1.81-0.62c0.46-0.28,0.78-0.62,0.97-1.04c0.19-0.42,0.29-0.9,0.29-1.45
		s-0.11-1.02-0.34-1.41c-0.22-0.39-0.6-0.7-1.12-0.94s-1.21-0.42-2.07-0.53c-0.86-0.11-1.92-0.16-3.19-0.16
		c-1.26,0-2.29,0.03-3.06,0.09c-0.78,0.06-1.38,0.19-1.8,0.4c-0.42,0.21-0.7,0.51-0.85,0.92c-0.15,0.4-0.22,0.95-0.22,1.64
		c0,0.69,0.08,1.25,0.23,1.69s0.47,0.77,0.94,1.01s1.16,0.41,2.05,0.49C278.15,112.89,279.33,112.93,280.81,112.93z"/>
	<path d="M305.64,101.69c0-0.84-0.05-1.54-0.14-2.1c-0.09-0.56-0.31-1-0.65-1.33c-0.34-0.33-0.85-0.57-1.52-0.7
		c-0.67-0.13-1.59-0.2-2.75-0.2c-1.13,0-2.05,0.13-2.77,0.39c-0.71,0.26-1.27,0.63-1.67,1.11c-0.4,0.48-0.68,1.05-0.82,1.72
		c-0.14,0.67-0.22,1.41-0.22,2.23v12.5h-2.53v-20.2h2.53v3.21c0.09-0.36,0.25-0.76,0.49-1.2c0.24-0.44,0.6-0.85,1.08-1.23
		s1.11-0.7,1.88-0.96c0.77-0.26,1.73-0.39,2.88-0.39c1.32,0,2.39,0.16,3.21,0.46s1.47,0.77,1.93,1.37c0.46,0.6,0.77,1.35,0.93,2.24
		s0.24,1.91,0.24,3.07H305.64z"/>
	<path d="M324.18,106.34c0,1.72-0.11,3.15-0.32,4.3c-0.21,1.15-0.56,2.07-1.06,2.76c-0.5,0.69-1.15,1.18-1.96,1.47
		s-1.8,0.44-2.99,0.44c-1.15,0-2.12-0.12-2.9-0.35s-1.41-0.63-1.9-1.19c-0.48-0.56-0.83-1.31-1.04-2.24
		c-0.21-0.93-0.32-2.1-0.32-3.5V97.92h-3.12v-2.81h3.12v-5.49h2.53v5.49h9.52v2.81h-9.52v10.11c0,1.12,0.06,1.98,0.19,2.59
		c0.13,0.61,0.33,1.05,0.61,1.33c0.28,0.28,0.65,0.44,1.11,0.49c0.46,0.05,1.02,0.07,1.69,0.07c0.53,0,1-0.01,1.42-0.04
		s0.78-0.1,1.09-0.22c0.31-0.12,0.58-0.31,0.8-0.56c0.22-0.25,0.4-0.61,0.53-1.06c0.14-0.46,0.23-1.03,0.3-1.73s0.09-1.55,0.09-2.57
		H324.18z"/>
	<path d="M330.92,91.75h-2.53v-3.37h2.53V91.75z M328.39,95.11h2.53v20.2h-2.53V95.11z"/>
	<path d="M340.84,106.04c-0.9-0.05-1.68-0.14-2.34-0.29c-0.65-0.15-1.2-0.35-1.63-0.62c-0.43-0.27-0.78-0.63-1.03-1.08
		c-0.25-0.45-0.43-1.01-0.54-1.67s-0.16-1.38-0.16-2.15c0-1.05,0.17-1.94,0.5-2.66c0.33-0.72,0.87-1.3,1.61-1.75
		c0.74-0.45,1.69-0.77,2.87-0.97c1.18-0.2,2.61-0.3,4.29-0.3c1.67,0,3.04,0.12,4.13,0.35c1.08,0.23,1.94,0.59,2.58,1.08
		c0.64,0.48,1.08,1.1,1.34,1.83c0.25,0.74,0.38,1.61,0.38,2.63h-2.53c0-0.63-0.09-1.15-0.27-1.54c-0.18-0.4-0.49-0.71-0.94-0.94
		c-0.45-0.23-1.05-0.39-1.81-0.47c-0.76-0.09-1.72-0.13-2.88-0.13c-1.26,0-2.33,0.02-3.19,0.07s-1.55,0.16-2.08,0.35
		c-0.53,0.19-0.9,0.47-1.13,0.86c-0.23,0.39-0.34,0.92-0.34,1.6c0,0.4,0.02,0.79,0.06,1.17c0.04,0.38,0.13,0.69,0.27,0.94
		s0.35,0.43,0.62,0.56c0.27,0.13,0.64,0.22,1.11,0.29s1.05,0.1,1.75,0.11c0.69,0.01,1.53,0.01,2.51,0.01c1.19,0,2.24,0.03,3.14,0.1
		c0.9,0.07,1.68,0.19,2.34,0.37c0.66,0.18,1.2,0.44,1.63,0.81c0.43,0.36,0.77,0.76,1.03,1.18c0.26,0.43,0.44,0.93,0.55,1.51
		c0.11,0.58,0.16,1.25,0.16,2.01s-0.05,1.44-0.16,2.04s-0.29,1.13-0.55,1.6c-0.26,0.46-0.62,0.86-1.07,1.19s-1.02,0.6-1.71,0.81
		c-0.68,0.21-1.5,0.36-2.46,0.46c-0.95,0.1-2.06,0.15-3.32,0.15c-1.58,0-2.91-0.1-3.98-0.32c-1.08-0.21-1.94-0.55-2.6-1.01
		s-1.13-1.06-1.42-1.8s-0.43-1.64-0.43-2.7h2.53c0,0.7,0.09,1.27,0.27,1.71c0.18,0.44,0.49,0.78,0.94,1.03
		c0.45,0.25,1.05,0.41,1.81,0.5c0.76,0.09,1.72,0.13,2.88,0.13c1.05,0,1.95-0.03,2.69-0.1c0.74-0.06,1.36-0.17,1.86-0.31
		c0.5-0.14,0.9-0.31,1.18-0.51c0.29-0.2,0.51-0.44,0.66-0.72c0.15-0.28,0.24-0.59,0.28-0.94c0.04-0.34,0.06-0.73,0.06-1.15
		c0-0.39-0.02-0.73-0.06-1.03c-0.04-0.3-0.13-0.6-0.27-0.89c-0.14-0.3-0.35-0.52-0.62-0.67c-0.27-0.15-0.64-0.28-1.11-0.38
		s-1.05-0.17-1.75-0.21c-0.69-0.04-1.53-0.06-2.51-0.06C342.79,106.11,341.74,106.09,340.84,106.04z"/>
	<path d="M370.95,106.34c0,1.72-0.11,3.15-0.32,4.3c-0.21,1.15-0.56,2.07-1.06,2.76c-0.5,0.69-1.15,1.18-1.96,1.47
		s-1.8,0.44-2.99,0.44c-1.15,0-2.12-0.12-2.9-0.35s-1.41-0.63-1.9-1.19c-0.48-0.56-0.83-1.31-1.04-2.24
		c-0.21-0.93-0.32-2.1-0.32-3.5V97.92h-3.12v-2.81h3.12v-5.49h2.53v5.49h9.52v2.81h-9.52v10.11c0,1.12,0.06,1.98,0.19,2.59
		c0.13,0.61,0.33,1.05,0.61,1.33c0.28,0.28,0.65,0.44,1.11,0.49c0.46,0.05,1.02,0.07,1.69,0.07c0.53,0,1-0.01,1.42-0.04
		s0.78-0.1,1.09-0.22c0.31-0.12,0.58-0.31,0.8-0.56c0.22-0.25,0.4-0.61,0.53-1.06c0.14-0.46,0.23-1.03,0.3-1.73s0.09-1.55,0.09-2.57
		H370.95z"/>
</g>
<line class="st0" x1="7.64" y1="76.38" x2="632.89" y2="77.96"/>
<linearGradient id="SVGID_1_" gradientUnits="userSpaceOnUse" x1="7.6357" y1="65.6896" x2="514.7639" y2="65.6896">
	<stop  offset="0" style="stop-color:#FFFFFF"/>
	<stop  offset="1" style="stop-color:#000000"/>
</linearGradient>
<line class="st1" x1="7.64" y1="65.42" x2="514.76" y2="65.96"/>
</svg>
